<svg viewBox="0 0 14 14" fill="none" xmlns="http://www.w3.org/2000/svg">
<g>
<g>
<path fill-rule="evenodd" clip-rule="evenodd" d="M2.0814 5.83334C2.08759 5.83334 2.09379 5.83334 2.1 5.83334H2.56667C2.57288 5.83334 2.57908 5.83334 2.58528 5.83334C2.7325 5.83332 2.87588 5.8333 2.9973 5.84322C3.13065 5.85412 3.28799 5.87982 3.44633 5.9605C3.66585 6.07235 3.84432 6.25083 3.95618 6.47035C4.03685 6.62868 4.06256 6.78602 4.07345 6.91937C4.08337 7.0408 4.08336 7.18417 4.08334 7.3314C4.08334 7.33759 4.08334 7.3438 4.08334 7.35L4.08334 11.3353C4.08336 11.4825 4.08337 11.6259 4.07345 11.7473C4.06256 11.8807 4.03685 12.038 3.95618 12.1963C3.84432 12.4158 3.66585 12.5943 3.44632 12.7062C3.28799 12.7869 3.13065 12.8126 2.9973 12.8235C2.87587 12.8334 2.73249 12.8334 2.58527 12.8333H2.08141C1.93418 12.8334 1.7908 12.8334 1.66937 12.8235C1.53602 12.8126 1.37868 12.7869 1.22035 12.7062C1.00082 12.5943 0.822348 12.4158 0.710495 12.1963C0.629822 12.038 0.604116 11.8807 0.593221 11.7473C0.5833 11.6259 0.583317 11.4825 0.583335 11.3353L0.583336 7.35C0.583336 7.3438 0.583336 7.33759 0.583335 7.3314C0.583317 7.18417 0.5833 7.0408 0.593221 6.91937C0.604116 6.78602 0.629822 6.62868 0.710495 6.47035C0.822348 6.25083 1.00082 6.07235 1.22035 5.9605C1.37868 5.87982 1.53602 5.85412 1.66937 5.84322C1.79079 5.8333 1.93417 5.83332 2.0814 5.83334Z" fill="currentColor"/>
<path fill-rule="evenodd" clip-rule="evenodd" d="M6.74807 3.5C6.75426 3.5 6.76047 3.5 6.76668 3.5H7.23334C7.23955 3.5 7.24575 3.5 7.25195 3.5C7.39917 3.49999 7.54255 3.49997 7.66398 3.50989C7.79732 3.52078 7.95467 3.54649 8.113 3.62716C8.33252 3.73902 8.511 3.91749 8.62285 4.13702C8.70352 4.29535 8.72923 4.45269 8.74012 4.58604C8.75005 4.70746 8.75003 4.85084 8.75001 4.99806C8.75001 5.00426 8.75001 5.01046 8.75001 5.01667L8.75001 11.3353C8.75003 11.4825 8.75005 11.6259 8.74012 11.7473C8.72923 11.8807 8.70352 12.038 8.62285 12.1963C8.511 12.4158 8.33252 12.5943 8.113 12.7062C7.95467 12.7869 7.79732 12.8126 7.66398 12.8235C7.54255 12.8334 7.39917 12.8334 7.25194 12.8333H6.74808C6.60085 12.8334 6.45747 12.8334 6.33604 12.8235C6.2027 12.8126 6.04535 12.7869 5.88702 12.7062C5.6675 12.5943 5.48902 12.4158 5.37717 12.1963C5.29649 12.038 5.27079 11.8807 5.25989 11.7473C5.24997 11.6259 5.24999 11.4825 5.25001 11.3353L5.25001 5.01667C5.25001 5.01046 5.25001 5.00426 5.25001 4.99806C5.24999 4.85084 5.24997 4.70746 5.25989 4.58604C5.27079 4.45269 5.29649 4.29535 5.37717 4.13702C5.48902 3.91749 5.6675 3.73902 5.88702 3.62716C6.04535 3.54649 6.2027 3.52078 6.33604 3.50989C6.45747 3.49997 6.60085 3.49999 6.74807 3.5Z" fill="currentColor"/>
<path fill-rule="evenodd" clip-rule="evenodd" d="M11.4147 1.16667C11.4209 1.16667 11.4271 1.16667 11.4333 1.16667L11.9 1.16667C11.9062 1.16667 11.9124 1.16667 11.9186 1.16667C12.0658 1.16665 12.2092 1.16663 12.3306 1.17655C12.464 1.18745 12.6213 1.21316 12.7797 1.29383C12.9992 1.40568 13.1777 1.58416 13.2895 1.80368C13.3702 1.96201 13.3959 2.11936 13.4068 2.2527C13.4167 2.37413 13.4167 2.51751 13.4167 2.66473C13.4167 2.67093 13.4167 2.67713 13.4167 2.68334L13.4167 11.3353C13.4167 11.4825 13.4167 11.6259 13.4068 11.7473C13.3959 11.8807 13.3702 12.038 13.2895 12.1963C13.1777 12.4158 12.9992 12.5943 12.7797 12.7062C12.6213 12.7869 12.464 12.8126 12.3306 12.8235C12.2092 12.8334 12.0659 12.8334 11.9186 12.8333H11.4147C11.2675 12.8334 11.1241 12.8334 11.0027 12.8235C10.8694 12.8126 10.712 12.7869 10.5537 12.7062C10.3342 12.5943 10.1557 12.4158 10.0438 12.1963C9.96317 12.038 9.93746 11.8807 9.92657 11.7473C9.91665 11.6259 9.91666 11.4825 9.91668 11.3353L9.91668 2.68334C9.91668 2.67713 9.91668 2.67093 9.91668 2.66473C9.91666 2.51751 9.91665 2.37413 9.92657 2.2527C9.93746 2.11936 9.96317 1.96201 10.0438 1.80368C10.1557 1.58416 10.3342 1.40568 10.5537 1.29383C10.712 1.21316 10.8694 1.18745 11.0027 1.17655C11.1241 1.16663 11.2675 1.16665 11.4147 1.16667Z" fill="currentColor"/>
</g>
</g>
</svg>
