<svg viewBox="0 0 14 14" fill="none" xmlns="http://www.w3.org/2000/svg">
<g>
<path d="M8.16667 1.32385V3.73333C8.16667 4.06003 8.16667 4.22338 8.23025 4.34816C8.28617 4.45792 8.37541 4.54716 8.48517 4.60309C8.60995 4.66667 8.7733 4.66667 9.1 4.66667H11.5095M11.6667 5.82646V10.0333C11.6667 11.0134 11.6667 11.5035 11.4759 11.8778C11.3081 12.2071 11.0404 12.4748 10.7111 12.6426C10.3368 12.8333 9.84676 12.8333 8.86667 12.8333H5.13333C4.15324 12.8333 3.6632 12.8333 3.28885 12.6426C2.95957 12.4748 2.69185 12.2071 2.52407 11.8778C2.33333 11.5035 2.33333 11.0134 2.33333 10.0333V3.96667C2.33333 2.98657 2.33333 2.49653 2.52407 2.12218C2.69185 1.7929 2.95957 1.52518 3.28885 1.35741C3.6632 1.16667 4.15324 1.16667 5.13333 1.16667H7.00687C7.4349 1.16667 7.64892 1.16667 7.85032 1.21502C8.02889 1.25789 8.19959 1.3286 8.35617 1.42455C8.53277 1.53277 8.6841 1.6841 8.98677 1.98677L10.8466 3.84657C11.1492 4.14923 11.3006 4.30056 11.4088 4.47717C11.5047 4.63374 11.5754 4.80445 11.6183 4.98301C11.6667 5.18441 11.6667 5.39843 11.6667 5.82646Z" stroke="currentColor" stroke-width="1.17" stroke-linecap="round" stroke-linejoin="round"/>
</g>
</svg>
