<svg viewBox="0 0 14 14" fill="none" xmlns="http://www.w3.org/2000/svg">
<g>
<g>
<path fill-rule="evenodd" clip-rule="evenodd" d="M4.66667 7C4.66667 6.67783 4.92783 6.41667 5.25 6.41667L12.25 6.41667C12.5722 6.41667 12.8333 6.67783 12.8333 7C12.8333 7.32217 12.5722 7.58333 12.25 7.58333L5.25 7.58333C4.92783 7.58333 4.66667 7.32217 4.66667 7Z" fill="currentColor"/>
<path fill-rule="evenodd" clip-rule="evenodd" d="M4.66667 3.5C4.66667 3.17783 4.92783 2.91667 5.25 2.91667L12.25 2.91667C12.5722 2.91667 12.8333 3.17783 12.8333 3.5C12.8333 3.82217 12.5722 4.08333 12.25 4.08333L5.25 4.08333C4.92783 4.08333 4.66667 3.82217 4.66667 3.5Z" fill="currentColor"/>
<path fill-rule="evenodd" clip-rule="evenodd" d="M4.66667 10.5C4.66667 10.1778 4.92783 9.91667 5.25 9.91667L12.25 9.91667C12.5722 9.91667 12.8333 10.1778 12.8333 10.5C12.8333 10.8222 12.5722 11.0833 12.25 11.0833L5.25 11.0833C4.92783 11.0833 4.66667 10.8222 4.66667 10.5Z" fill="currentColor"/>
<path fill-rule="evenodd" clip-rule="evenodd" d="M1.16667 7C1.16667 6.35567 1.689 5.83333 2.33333 5.83333C2.97767 5.83333 3.5 6.35567 3.5 7C3.5 7.64433 2.97767 8.16667 2.33333 8.16667C1.689 8.16667 1.16667 7.64433 1.16667 7Z" fill="currentColor"/>
<path fill-rule="evenodd" clip-rule="evenodd" d="M1.16667 3.5C1.16667 2.85567 1.689 2.33333 2.33333 2.33333C2.97767 2.33333 3.5 2.85567 3.5 3.5C3.5 4.14433 2.97767 4.66667 2.33333 4.66667C1.689 4.66667 1.16667 4.14433 1.16667 3.5Z" fill="currentColor"/>
<path fill-rule="evenodd" clip-rule="evenodd" d="M1.16667 10.5C1.16667 9.85567 1.689 9.33333 2.33333 9.33333C2.97767 9.33333 3.5 9.85567 3.5 10.5C3.5 11.1443 2.97767 11.6667 2.33333 11.6667C1.689 11.6667 1.16667 11.1443 1.16667 10.5Z" fill="currentColor"/>
</g>
</g>
</svg>
